<svg version="1.2" xmlns="http://www.w3.org/2000/svg" viewBox="0 0 560 560" width="560" height="560">
	<title>logo-svg</title>
	<style>
		.s0 { fill: #000000 } 
	</style>
	<path id="Layer" class="s0" d="m466.5 305.7c0.9 5.8-0.2 10.7-2.2 16.7-1.8-3.2-0.7-5.5-0.5-7.6 0.8-6.7-0.5-12.9-5-18.2-1.6-2-2.4-4.3-3.2-6.7-2.5-8-7.4-12.7-16.2-13.9-12.9-1.9-25.2-6.5-38-8.6-4.7-0.8-9.5-1.6-14.3-2 19.4 4 37.2 11 50 27.4-34.4-14.9-69.8-25.7-107.3-29.1 14.1-1.7 28.1-1.2 42.1-0.4-1-0.3-2-0.8-3-0.7-8.1 0.8-13.8-3.6-19.9-8.2-18.1-14-39.1-21-61.6-24.1-5.3-0.7-10.7-1.1-17.3-1.8 2.9-2.4 5.1-1.8 7-1.7 26.5 1.6 51 9.2 72.9 24.3 6.6 4.6 13.3 7.8 21.3 8.8 23.3 3.1 46.5 6.2 69.3 12.4 10.4 2.9 17.8 7.9 19.8 19.1 0.2 1.5 1 2.7 2 3.9 2.5 2.9 3.8 6.2 4.1 10.4z"/>
	<path id="Layer" class="s0" d="m356.8 282.1c4.8 4.5 8.9 8.9 11.5 15.2-33.8-26.1-73.1-33.4-114.3-34.4 0.4-2 1.5-1.9 2.4-2 24-0.3 48-1.3 71.2 6.7 10.3 3.5 20.3 7.5 29.2 14.5z"/>
	<path id="Layer" class="s0" d="m329.7 297.8c40.1 6.8 79.9 13.8 120.4 5.6-4.2 3.4-9.3 4.8-14.4 5.8-21 4-42.1 3-63.1-0.2-14-2.1-27.7-5.3-41.5-8.6-1.6-0.3-3.2-0.6-4.4-1.8 0.6-1.5 1.8-0.8 3-0.8z"/>
	<path id="Layer" class="s0" d="m319.6 249.4c-7.9-6.4-16.6-10.6-25.7-14.3 14.2-0.7 48.3 14.9 56.8 25.8-10.7-0.5-20.6-2.8-30.9-0.3 0.5-3.9 5.2-2.1 4.7-5.3-0.4-2.7-2.9-4-4.9-5.9z"/>
	<path id="Layer" class="s0" d="m212.3 227.7c9.4 0.9 15.1 6.5 19.8 13.5 1.9 2.7 3.2 5.8 5.1 8.6 3.1 4.7 7.3 7.9 13 9.4-5.5 0.8-10.2-0.4-14.2-4.2-3.5-3.4-5.8-7.7-8.5-11.7-6.3-9.5-14.3-13.7-26.3-11.4-17.1 3.2-31.9 11.1-46.4 20.1-1.8 1.1-3.3 2.7-5.6 3.1 3.8-10.4 44.4-28.2 63.1-27.4z"/>
	<path id="Layer" class="s0" d="m378.3 337.7c-5.2 0.2-10 0.4-14.8 0.5-1.8 0.1-3.7 0-3.9-2.1-1-9.3-6.9-14.3-14.9-18 4.8-1.3 9.3-0.5 13.5 1.5 2.8 1.4 5.5 3.2 7.8 5.3 5.5 5 11.1 9.9 20.3 10.8-3.4 2.2-5.6 1.4-8 2z"/>
	<path id="Layer" class="s0" d="m300.9 279.2c-3.3-2.2-7.1-3-9.7-5.8 13.8-6.1 55.8 7.8 63.9 21.4-8.1-4.2-15.6-9.7-24.2-13.1-8.6-3.3-17.5-4.8-27.4-5.8 4.8 3.2 8.9 6 10.7 11.4-4.4-2.6-8.7-5.3-13.3-8.1z"/>
	<path id="Layer" class="s0" d="m213.9 253.8c-5.3-1-10.2-0.3-15.1 0-0.8-1.5 0.3-2.1 1.1-2.5 7.3-2.8 14.6-4.3 22.3-1.7 3.7 1.3 5.1 4.2 4.9 7.8-0.2 3.6-2.6 5-6.3 5.5-1.4-3.7-1.3-8.3-6.9-9.1z"/>
	<path id="Layer" class="s0" d="m445.4 336.5c-3.8 3.3-7.9 3.8-12.2 3.5-0.2-1.3 0.5-1.8 1.2-2.1 5.8-2.4 9.7-6.7 12.4-12.3 1.2-2.4 2.8-4.5 4.9-6.2 3.2-2.5 6.2-2.2 9.8 0.6-7.5-0.1-9.6 5.4-12 10.5-1 2.1-2.2 4-4.1 6z"/>
	<path id="Layer" class="s0" d="m445.5 293c-1-5-3.5-8.8-6.2-12.7 6.4-1.9 12.9 6.1 12.3 12.6-2.4 0-1.9-2.9-3.8-3.5-0.9 1.9 0.7 4.5-1.7 6.5-0.2-1.1-0.4-1.8-0.6-2.9z"/>
</svg>