<svg version="1.1" id="Layer_1" xmlns="http://www.w3.org/2000/svg" xmlns:xlink="http://www.w3.org/1999/xlink" x="0px" y="0px"
	 width="100%" viewBox="0 0 560 368" enable-background="new 0 0 560 368" xml:space="preserve">
<path fill="#000000" opacity="1.000000" stroke="none" 
	d="
M188.186523,178.653198 
	C207.295471,180.923996 225.938171,183.309250 244.329056,187.266968 
	C248.014008,188.059967 251.192627,187.016922 254.509705,185.847397 
	C266.293213,181.692795 278.097137,178.817734 290.509766,183.732544 
	C297.728333,186.590775 303.557922,190.832138 307.718994,197.794144 
	C304.428925,201.044388 301.331238,204.418198 299.623840,209.298737 
	C297.004425,206.811752 296.851257,203.981094 295.676849,201.692825 
	C294.225372,198.864670 292.610992,196.189072 290.602509,193.713196 
	C280.043671,180.697220 265.289856,181.300644 255.464294,194.966507 
	C253.288162,197.993195 253.031296,203.257309 249.035645,203.825806 
	C245.755493,204.292526 242.091568,202.042160 238.594452,201.007233 
	C218.815750,195.153915 199.106201,188.887497 178.567383,186.284500 
	C155.452621,183.355011 132.261047,180.494812 109.249954,187.297012 
	C108.506142,187.516907 107.678093,187.451828 106.406494,187.561096 
	C107.285576,184.388321 109.775009,183.599503 111.792778,182.547867 
	C119.793816,178.377838 128.532364,176.831497 137.384689,176.686508 
	C154.190811,176.411270 171.019867,176.291656 188.186523,178.653198 
z"/>
<path fill="#000000" opacity="1.000000" stroke="none" 
	d="
M466.478821,209.717682 
	C467.402863,215.450470 466.271332,220.440826 464.280060,226.405869 
	C462.515839,223.195526 463.617218,220.937637 463.837646,218.841782 
	C464.551056,212.058472 463.286957,205.910843 458.835419,200.594208 
	C457.194336,198.634216 456.383972,196.339050 455.623444,193.917542 
	C453.120514,185.948013 448.170776,181.215576 439.351837,179.955826 
	C426.511108,178.121582 414.229950,173.462784 401.388977,171.401917 
	C396.661835,170.643234 391.946228,169.812592 387.121613,169.363724 
	C406.545349,173.356720 424.251251,180.384293 437.065613,196.825165 
	C402.708893,181.908829 367.299805,171.098419 329.822418,167.692490 
	C343.904236,166.006180 357.867126,166.521347 371.917389,167.268417 
	C370.923279,167.044083 369.902893,166.545990 368.939178,166.638474 
	C360.789398,167.420547 355.090881,163.047333 349.019745,158.361023 
	C330.914490,144.385513 309.890411,137.375595 287.427155,134.340576 
	C282.080719,133.618225 276.697571,133.167587 270.100647,132.459961 
	C272.981567,130.133850 275.160248,130.679932 277.097778,130.798355 
	C303.571808,132.416260 328.121033,139.993790 350.033051,155.148209 
	C356.589569,159.682724 363.251129,162.867569 371.348358,163.931778 
	C394.596466,166.987274 417.837860,170.118362 440.569794,176.323227 
	C451.014709,179.174286 458.434021,184.156998 460.360840,195.361374 
	C460.627014,196.909241 461.436157,198.128723 462.431549,199.275681 
	C464.926422,202.150436 466.150360,205.537292 466.478821,209.717682 
z"/>
<path fill="#000000" opacity="1.000000" stroke="none" 
	d="
M155.035675,245.953461 
	C151.064713,245.631836 147.432739,246.777893 144.079330,244.616745 
	C173.162674,239.762024 202.483124,242.367081 232.235489,241.506424 
	C207.566925,235.603119 182.789032,233.313965 158.225143,229.563416 
	C166.223892,228.392319 174.122482,229.548126 181.955124,230.251068 
	C199.352005,231.812347 216.788025,232.631927 234.212723,233.605591 
	C239.132172,233.880478 242.475525,235.218185 244.213242,239.979004 
	C245.560577,243.670349 248.326187,246.773926 249.129776,251.457336 
	C218.013733,243.417938 186.672211,246.556702 155.035675,245.953461 
z"/>
<path fill="#000000" opacity="1.000000" stroke="none" 
	d="
M272.105286,228.739014 
	C275.124023,220.696884 280.223694,216.955109 286.592926,217.807602 
	C293.030029,218.669189 298.005585,224.482712 298.637115,231.880280 
	C299.244019,238.989258 294.880890,246.326843 288.863770,248.316498 
	C281.120605,250.876907 272.727600,244.949081 271.798767,236.110474 
	C271.557892,233.818436 271.896393,231.465500 272.105286,228.739014 
z"/>
<path fill="#000000" opacity="1.000000" stroke="none" 
	d="
M356.836945,186.119202 
	C361.585968,190.572205 365.744934,195.042725 368.260742,201.271439 
	C334.533997,175.178375 295.183258,167.946503 254.032425,166.864929 
	C254.351456,164.927383 255.489914,164.956177 256.427551,164.941086 
	C280.398987,164.555191 304.438263,163.598663 327.616730,171.576080 
	C337.865082,175.103317 347.910065,179.109512 356.836945,186.119202 
z"/>
<path fill="#000000" opacity="1.000000" stroke="none" 
	d="
M289.801361,203.973755 
	C291.270203,205.249390 293.090851,205.708923 293.552368,208.351990 
	C280.082397,204.911118 269.865784,209.094452 263.687714,221.396667 
	C257.841309,233.038422 259.269684,244.553879 265.491272,255.621231 
	C263.888580,256.972778 263.159698,255.589813 262.411377,254.948837 
	C248.351135,242.905502 248.019470,217.819565 261.723724,205.430267 
	C269.340515,198.544357 279.669373,197.927307 289.801361,203.973755 
z"/>
<path fill="#000000" opacity="1.000000" stroke="none" 
	d="
M329.702728,201.769333 
	C369.814728,208.591766 409.560425,215.591827 450.107758,207.420609 
	C445.884399,210.788834 440.759796,212.193237 435.679260,213.166809 
	C414.677612,217.191284 393.641205,216.165482 372.624664,213.014267 
	C358.622833,210.914841 344.864502,207.664688 331.096344,204.444016 
	C329.502441,204.071152 327.918701,203.805710 326.705383,202.646423 
	C327.333710,201.056320 328.460968,201.808640 329.702728,201.769333 
z"/>
<path fill="#000000" opacity="1.000000" stroke="none" 
	d="
M319.644897,153.355072 
	C311.717590,147.014450 302.961792,142.826157 293.933594,139.113220 
	C308.070770,138.446777 342.223541,153.953690 350.699005,164.926529 
	C340.021759,164.409363 330.075531,162.071976 319.840729,164.569214 
	C320.288422,160.684204 324.993011,162.499435 324.528839,159.270721 
	C324.145966,156.607407 321.630493,155.347977 319.644897,153.355072 
z"/>
<path fill="#000000" opacity="1.000000" stroke="none" 
	d="
M212.292175,131.664459 
	C221.661133,132.594009 227.370544,138.239655 232.101318,145.167313 
	C233.973190,147.908447 235.321823,151.003799 237.152924,153.776581 
	C240.251862,158.469162 244.481842,161.745773 250.153137,163.243958 
	C244.687881,164.034805 239.954575,162.840607 236.032013,159.029678 
	C232.530212,155.627563 230.199753,151.340240 227.538818,147.330231 
	C221.197617,137.774063 213.180756,133.626022 201.222351,135.874908 
	C184.090591,139.096695 169.297256,147.004013 154.822342,155.994659 
	C153.023392,157.112000 151.466003,158.722305 149.177094,159.121185 
	C152.961334,148.668854 193.623856,130.901398 212.292175,131.664459 
z"/>
<path fill="#000000" opacity="1.000000" stroke="none" 
	d="
M126.539375,249.198837 
	C125.448708,251.670120 124.818275,254.297424 121.805984,253.976349 
	C119.213982,253.700043 118.601280,251.241516 117.973152,249.251114 
	C115.093086,240.124908 115.272873,230.984711 118.318840,221.922485 
	C118.954239,220.032089 119.744331,217.979340 122.241989,218.062744 
	C124.594299,218.141281 125.621498,219.972992 126.248390,221.928848 
	C129.104462,230.839539 129.167511,239.811859 126.539375,249.198837 
z"/>
<path fill="#000000" opacity="1.000000" stroke="none" 
	d="
M115.640076,215.662338 
	C109.820618,226.651886 109.686974,235.042542 114.859962,258.258881 
	C112.961929,258.392761 112.251930,257.076385 111.603188,255.842773 
	C103.511971,240.456985 103.514923,224.887329 111.581123,209.658264 
	C115.525284,202.211655 122.218697,201.807343 127.845459,208.732452 
	C122.110825,208.488831 118.039352,210.526733 115.640076,215.662338 
z"/>
<path fill="#000000" opacity="1.000000" stroke="none" 
	d="
M378.322632,241.683136 
	C373.075745,241.905121 368.263641,242.067184 363.451263,242.220795 
	C361.723633,242.275955 359.802979,242.216965 359.583923,240.052689 
	C358.645996,230.786118 352.718414,225.764740 344.660950,222.104919 
	C349.488953,220.829193 353.989105,221.550644 358.171356,223.648254 
	C360.961731,225.047775 363.670074,226.827469 365.985687,228.913681 
	C371.535614,233.913803 377.072113,238.806946 386.275055,239.738342 
	C382.947906,241.946075 380.719910,241.143127 378.322632,241.683136 
z"/>
<path fill="#000000" opacity="1.000000" stroke="none" 
	d="
M300.882996,183.151276 
	C297.575745,181.024796 293.849182,180.237915 291.205322,177.374496 
	C305.046722,171.250488 346.967010,185.178360 355.086761,198.794724 
	C346.950989,194.559601 339.468231,189.101303 330.856049,185.735367 
	C322.299866,182.391296 313.427765,180.882355 303.509369,179.850479 
	C308.303375,183.125809 312.393188,185.921982 314.166351,191.343887 
	C309.846710,188.670944 305.527100,185.998001 300.882996,183.151276 
z"/>
<path fill="#000000" opacity="1.000000" stroke="none" 
	d="
M136.762970,209.345551 
	C137.093994,212.299179 138.895935,214.672501 137.702606,218.100296 
	C131.551834,207.851517 129.824814,192.776993 111.385658,197.029526 
	C114.324799,192.137939 116.629005,187.754318 121.908119,187.215698 
	C127.117073,186.684265 129.936584,190.558502 131.950714,194.780289 
	C134.105377,199.296631 135.445435,204.112732 136.762970,209.345551 
z"/>
<path fill="#000000" opacity="1.000000" stroke="none" 
	d="
M213.934082,157.801727 
	C208.608795,156.827362 203.665253,157.473145 198.819901,157.775208 
	C198.024048,156.252060 199.077606,155.672302 199.906754,155.349411 
	C207.155365,152.526718 214.536346,150.979828 222.214005,153.592682 
	C225.932541,154.858154 227.277115,157.801788 227.081100,161.404480 
	C226.886108,164.988617 224.475021,166.446762 220.829620,166.892807 
	C219.419434,163.246490 219.473206,158.553619 213.934082,157.801727 
z"/>
<path fill="#000000" opacity="1.000000" stroke="none" 
	d="
M316.900238,245.847626 
	C314.581207,246.488190 312.660706,247.002518 310.743958,247.530426 
	C303.699249,249.470673 300.752625,246.423981 302.702972,238.337372 
	C305.466370,243.617874 309.501343,242.528305 313.861877,241.662048 
	C322.013336,240.042725 330.291107,240.032852 338.545135,241.100677 
	C339.616211,241.239258 340.923004,241.025177 341.803711,243.089279 
	C333.413635,243.485199 325.299042,244.184326 316.900238,245.847626 
z"/>
<path fill="#000000" opacity="1.000000" stroke="none" 
	d="
M445.350830,240.454468 
	C441.631744,243.830338 437.521790,244.318771 433.178162,244.020325 
	C432.969696,242.705856 433.653656,242.163361 434.402161,241.857010 
	C440.234100,239.470123 444.140015,235.195404 446.832825,229.600632 
	C447.983826,227.209213 449.576538,225.080994 451.706146,223.395554 
	C454.866821,220.894104 457.920197,221.190918 461.453613,223.952744 
	C453.966522,223.889206 451.896820,229.371490 449.495636,234.465866 
	C448.496338,236.586014 447.299927,238.545639 445.350830,240.454468 
z"/>
<path fill="#000000" opacity="1.000000" stroke="none" 
	d="
M445.510712,196.962463 
	C444.512054,192.044205 441.961731,188.194504 439.317352,184.313324 
	C445.734314,182.384064 452.216766,190.417511 451.584961,196.933319 
	C449.228302,196.939499 449.714630,193.995071 447.812012,193.364914 
	C446.850250,195.313843 448.512909,197.916321 446.128387,199.852448 
	C445.902130,198.835327 445.731689,198.069046 445.510712,196.962463 
z"/>
</svg>